<?xml version='1.0' encoding='utf8'?>
<svg class="toyplot-canvas-Canvas" xmlns:toyplot="http://www.sandia.gov/toyplot" xmlns:xlink="http://www.w3.org/1999/xlink" xmlns="http://www.w3.org/2000/svg" width="1000.0px" height="300.0px" viewBox="0 0 1000.0 300.0" preserveAspectRatio="xMidYMid meet" style="background-color:transparent;border-color:#292724;border-style:none;border-width:1.0;fill:rgb(16.1%,15.3%,14.1%);fill-opacity:1.0;font-family:Helvetica;font-size:12px;opacity:1.0;stroke:rgb(16.1%,15.3%,14.1%);stroke-opacity:1.0;stroke-width:1.0" id="t558d83ac5672417eb38d1e1652b7c3ed"><g class="toyplot-coordinates-Cartesian" id="t8a798c92f90f48909172624255f13f51"><clipPath id="t8eb1eb267d5b4ed1be7e7841e2080a38"><rect x="30.0" y="30.0" width="940.0" height="240.0" /></clipPath><g clip-path="url(#t8eb1eb267d5b4ed1be7e7841e2080a38)"><g class="toytree-mark-Toytree" id="t972ac822fc064ba08be1b0159db1170a"><g class="toytree-Edges" style="fill:none;stroke:rgb(14.9%,14.9%,14.9%);stroke-linecap:round;stroke-opacity:1;stroke-width:2"><path d="M 51.4 112.4 L 51.4 71.1 L 404.8 71.1" id="18,17" /><path d="M 51.4 112.4 L 51.4 153.7 L 256.7 153.7" id="18,16" /><path d="M 256.7 153.7 L 256.7 115.5 L 384.7 115.5" id="16,15" /><path d="M 256.7 153.7 L 256.7 191.9 L 353.6 191.9" id="16,14" /><path d="M 384.7 115.5 L 384.7 130.3 L 533.4 130.3" id="15,13" /><path d="M 353.6 191.9 L 353.6 169.7 L 522.8 169.7" id="14,12" /><path d="M 353.6 191.9 L 353.6 214.1 L 398.3 214.1" id="14,11" /><path d="M 398.3 214.1 L 398.3 228.9 L 514.7 228.9" id="11,10" /><path d="M 404.8 71.1 L 404.8 61.2 L 584.2 61.2" id="17,9" /><path d="M 404.8 71.1 L 404.8 80.9 L 584.2 80.9" id="17,8" /><path d="M 384.7 115.5 L 384.7 100.7 L 642.8 100.7" id="15,7" /><path d="M 533.4 130.3 L 533.4 120.4 L 701.3 120.4" id="13,6" /><path d="M 533.4 130.3 L 533.4 140.1 L 701.3 140.1" id="13,5" /><path d="M 522.8 169.7 L 522.8 159.9 L 649.3 159.9" id="12,4" /><path d="M 522.8 169.7 L 522.8 179.6 L 642.8 179.6" id="12,3" /><path d="M 398.3 214.1 L 398.3 199.3 L 701.3 199.3" id="11,2" /><path d="M 514.7 228.9 L 514.7 219.1 L 701.3 219.1" id="10,1" /><path d="M 514.7 228.9 L 514.7 238.8 L 701.3 238.8" id="10,0" /></g><g class="toytree-AlignEdges" style="stroke:rgb(66.3%,66.3%,66.3%);stroke-dasharray:2, 4;stroke-linecap:round;stroke-opacity:1.0;stroke-width:2"><path d="M 701.3 238.8 L 701.3 238.8" /><path d="M 701.3 219.1 L 701.3 219.1" /><path d="M 701.3 199.3 L 701.3 199.3" /><path d="M 701.3 179.6 L 642.8 179.6" /><path d="M 701.3 159.9 L 649.3 159.9" /><path d="M 701.3 140.1 L 701.3 140.1" /><path d="M 701.3 120.4 L 701.3 120.4" /><path d="M 701.3 100.7 L 642.8 100.7" /><path d="M 701.3 80.9 L 584.2 80.9" /><path d="M 701.3 61.2 L 584.2 61.2" /></g><g class="toytree-TipLabels" style="fill:rgb(14.9%,14.9%,14.9%);fill-opacity:1.0;font-family:helvetica;font-size:11px;font-weight:normal;stroke:none;white-space:pre"><g transform="translate(701.35,238.81)rotate(0)"><a href="https://glottolog.org/resource/languoid/id/orow1243#############"><text x="15.00" y="2.81" style="" fill="#0000ff">OroWin - Oro Win [orow1243#############]</text></a></g><g transform="translate(701.35,219.07)rotate(0)"><a href="https://glottolog.org/resource/languoid/id/wari1268#############"><text x="15.00" y="2.81" style="" fill="#0000ff">Wari - Wari' [wari1268#############]</text></a></g><g transform="translate(701.35,199.34)rotate(0)"><a href="https://glottolog.org/resource/languoid/id/wany1246#############"><text x="15.00" y="2.81" style="" fill="#0000ff">Wanyam - Wanyam [wany1246#############]</text></a></g><g transform="translate(701.35,179.60)rotate(0)"><a href="https://glottolog.org/resource/languoid/id/urup1245#############"><text x="15.00" y="2.81" style="" fill="#0000ff">Urupa - Urupa [urup1245#############]</text></a></g><g transform="translate(701.35,159.87)rotate(0)"><a href="https://glottolog.org/resource/languoid/id/yaru1257#############"><text x="15.00" y="2.81" style="" fill="#0000ff">Jaru - Yaru [yaru1257#############]</text></a></g><g transform="translate(701.35,140.13)rotate(0)"><a href="https://glottolog.org/resource/languoid/id/kuyu1236#############"><text x="15.00" y="2.81" style="" fill="#0000ff">Cojubim - Kuyubi [kuyu1236#############]</text></a></g><g transform="translate(701.35,120.40)rotate(0)"><a href="https://glottolog.org/resource/languoid/id/iten1243#############"><text x="15.00" y="2.81" style="" fill="#0000ff">More - Itene [iten1243#############]</text></a></g><g transform="translate(701.35,100.66)rotate(0)"><a href="https://glottolog.org/resource/languoid/id/tora1263#############"><text x="15.00" y="2.81" style="" fill="#0000ff">Tora - Torá [tora1263#############]</text></a></g><g transform="translate(701.35,80.93)rotate(0)"><a href="https://glottolog.org/resource/languoid/id/chap1269#############"><text x="15.00" y="2.81" style="" fill="#0000ff">Tapakura - Chapakura [chap1269#############]</text></a></g><g transform="translate(701.35,61.19)rotate(0)"><a href="https://glottolog.org/resource/languoid/id/kite1237#############"><text x="15.00" y="2.81" style="" fill="#0000ff">Kitemoka - Kitemoka [kite1237#############]</text></a></g></g></g></g><g class="toyplot-coordinates-Axis" id="t1a5db43e60b547ecb3f8d8f6a715a780" transform="translate(50.0,250.0)translate(0,20.0)"><line x1="1.444232177974297" y1="0" x2="651.3487122664255" y2="0" style="" /><g><line x1="651.3487122664255" y1="0" x2="651.3487122664255" y2="-5" style="" /><line x1="579.1371033677086" y1="0" x2="579.1371033677086" y2="-5" style="" /><line x1="506.9254944689919" y1="0" x2="506.9254944689919" y2="-5" style="" /><line x1="434.7138855702751" y1="0" x2="434.7138855702751" y2="-5" style="" /><line x1="362.50227667155826" y1="0" x2="362.50227667155826" y2="-5" style="" /><line x1="290.2906677728415" y1="0" x2="290.2906677728415" y2="-5" style="" /><line x1="218.0790588741247" y1="0" x2="218.0790588741247" y2="-5" style="" /><line x1="145.86744997540785" y1="0" x2="145.86744997540785" y2="-5" style="" /><line x1="73.65584107669108" y1="0" x2="73.65584107669108" y2="-5" style="" /><line x1="1.444232177974297" y1="0" x2="1.444232177974297" y2="-5" style="" /></g><g><g transform="translate(651.3487122664255,6)"><text x="-2.78" y="8.555" style="fill:rgb(16.1%,15.3%,14.1%);fill-opacity:1.0;font-family:helvetica;font-size:10.0px;font-weight:normal;stroke:none;vertical-align:baseline;white-space:pre">0</text></g><g transform="translate(579.1371033677086,6)"><text x="-8.34" y="8.555" style="fill:rgb(16.1%,15.3%,14.1%);fill-opacity:1.0;font-family:helvetica;font-size:10.0px;font-weight:normal;stroke:none;vertical-align:baseline;white-space:pre">111</text></g><g transform="translate(506.9254944689919,6)"><text x="-8.34" y="8.555" style="fill:rgb(16.1%,15.3%,14.1%);fill-opacity:1.0;font-family:helvetica;font-size:10.0px;font-weight:normal;stroke:none;vertical-align:baseline;white-space:pre">222</text></g><g transform="translate(434.7138855702751,6)"><text x="-8.34" y="8.555" style="fill:rgb(16.1%,15.3%,14.1%);fill-opacity:1.0;font-family:helvetica;font-size:10.0px;font-weight:normal;stroke:none;vertical-align:baseline;white-space:pre">333</text></g><g transform="translate(362.50227667155826,6)"><text x="-8.34" y="8.555" style="fill:rgb(16.1%,15.3%,14.1%);fill-opacity:1.0;font-family:helvetica;font-size:10.0px;font-weight:normal;stroke:none;vertical-align:baseline;white-space:pre">444</text></g><g transform="translate(290.2906677728415,6)"><text x="-8.34" y="8.555" style="fill:rgb(16.1%,15.3%,14.1%);fill-opacity:1.0;font-family:helvetica;font-size:10.0px;font-weight:normal;stroke:none;vertical-align:baseline;white-space:pre">555</text></g><g transform="translate(218.0790588741247,6)"><text x="-8.34" y="8.555" style="fill:rgb(16.1%,15.3%,14.1%);fill-opacity:1.0;font-family:helvetica;font-size:10.0px;font-weight:normal;stroke:none;vertical-align:baseline;white-space:pre">666</text></g><g transform="translate(145.86744997540785,6)"><text x="-8.34" y="8.555" style="fill:rgb(16.1%,15.3%,14.1%);fill-opacity:1.0;font-family:helvetica;font-size:10.0px;font-weight:normal;stroke:none;vertical-align:baseline;white-space:pre">777</text></g><g transform="translate(73.65584107669108,6)"><text x="-8.34" y="8.555" style="fill:rgb(16.1%,15.3%,14.1%);fill-opacity:1.0;font-family:helvetica;font-size:10.0px;font-weight:normal;stroke:none;vertical-align:baseline;white-space:pre">887</text></g><g transform="translate(1.444232177974297,6)"><text x="-8.34" y="8.555" style="fill:rgb(16.1%,15.3%,14.1%);fill-opacity:1.0;font-family:helvetica;font-size:10.0px;font-weight:normal;stroke:none;vertical-align:baseline;white-space:pre">998</text></g></g><g class="toyplot-coordinates-Axis-coordinates" style="visibility:hidden" transform=""><line x1="0" x2="0" y1="-3.0" y2="4.5" style="stroke:rgb(43.9%,50.2%,56.5%);stroke-opacity:1.0;stroke-width:1.0" /><text x="0" y="-6" style="alignment-baseline:alphabetic;fill:rgb(43.9%,50.2%,56.5%);fill-opacity:1.0;font-size:10px;font-weight:normal;stroke:none;text-anchor:middle" /></g></g><g transform="translate(500.0,42.0)"><text x="-286.32800000000003" y="-4.823" style="fill:rgb(16.1%,15.3%,14.1%);fill-opacity:1.0;font-family:helvetica;font-size:14.0px;font-weight:bold;stroke:none;vertical-align:baseline;white-space:pre">Summary tree of a Bayesian analysis of the Chapacuran family with branches in years</text></g></g></svg>